<?xml version="1.0" encoding="utf-8"?>
<!-- Generator: Adobe Illustrator 25.4.1, SVG Export Plug-In . SVG Version: 6.00 Build 0)  -->
<svg version="1.1" id="Layer_2" xmlns="http://www.w3.org/2000/svg" xmlns:xlink="http://www.w3.org/1999/xlink" x="0px" y="0px" viewBox="0 0 157.3 118.8" style="enable-background:new 0 0 157.3 118.8;" xml:space="preserve">
	<style type="text/css">
		.st0{fill:#FFFFFF;stroke:#231F20;stroke-width:2;stroke-miterlimit:10;}
		.st1{fill:none;stroke:#231F20;stroke-width:2;stroke-miterlimit:10;}
		.st2{fill:#FFFFFF;stroke:#231F20;stroke-width:0.5;stroke-miterlimit:10;}
		.st2:hover{fill:#070707;stroke:#070707;stroke-width:0.5;stroke-miterlimit:10;}
	</style>
	<g>
		<line class="st0" x1="82.1" y1="93.6" x2="101.5" y2="112.4"/>
		<path class="st1" d="M111.8,113.1c0-0.5-0.3-2.4-1.9-1.8c-3.6,1.4-13.2,1.1-19.9,0.5c-1.9-0.2-0.9,1.8-0.5,2.1"/>
		<line class="st0" x1="93" y1="95.5" x2="124.6" y2="114.9"/>
		<path class="st1" d="M138.6,115.9c0-0.7-0.3-3.3-2.6-2.4c-4.8,1.9-17.8,1.4-26.8,0.7c-2.6-0.2-1.2,2.4-0.7,2.8"/>
	</g>
	<path data-partie="bas-ventre" class="st2" d="M75.7,80c-4.2,3.3-8.1,4.2-10.9,4.6c4,3.2,7.3,9.4,16.6,11c3,1,2.2,2.1,4.8,2.7c2.6,0.6,18.5,0,25.7-5.6
		c-7.9,2-6.3,3.6-10.5,1c-3,0.5-4.9,1.4-16.5-4.4C80.2,86.8,77.2,83.6,75.7,80z"/>
	<path data-partie="rien" class="st2" d="M123.5,22.4c-2.1,0.9-3.2,1.1-4.4,2.7c2,1.4,4.4,5.7,12.2,3.2c1-2.7,2.2-5.3,2.2-5.3S127.8,25.9,123.5,22.4z"/>
	<ellipse data-partie="anneau péri-occulaire" class="st2" cx="133" cy="14.7" rx="3.6" ry="3"/>
	<circle data-partie="oeil" class="st2" cx="133" cy="14.7" r="2"/>
	<path data-partie="sourcil" class="st2" d="M113.2,12.4c-1.3,2.1-0.3,5.3,3.9,5.3c2.7-3.6,4.7-3.7,8.2-3.3s4.6-2.7,7.7-2.7s3.1,1.4,3.3,1.8
		c0.3-2.4,0-4.5,0-4.5s-3.8-2-5.3-2.1c-1.6-0.1-3.8-1-9.4,3.4S113.2,12.4,113.2,12.4z"/>
	<path data-partie="avant-sourcil" class="st2" d="M136.3,13.6V9.1c0,0,1.7,0.9,9.1,1c0.7,0.9,1.2,2.1,1.2,2.1S138.4,11.8,136.3,13.6z"/>
	<path data-partie="tectrices des primaires" class="st2" d="M104,61.5c-3.5,2.6-4.1,4.7-3.4,7.4c11.4-2.8,18.2-4.3,24.1-7.9C112.2,62.8,104,61.5,104,61.5z"/>
	<path data-partie="lore" class="st2" d="M146.5,12.3l1,2.1c0,0-4.9,1.8-6.2,4.1c-1,0-2.5,0.8-2.9,1.9c-1.6,0.8-2.2,1.1-2.2,1.1l-0.9-4.6
		c0,0,1.7-1.1,0.9-3.3C139.5,12.3,139.9,12.2,146.5,12.3z"/>
	<path data-partie="joue" class="st2" d="M129.6,15.7c0,0,1.9,3.6,5.8,1.2c0.9,4.6,0.9,4.6,0.9,4.6s0.6,0.2-3.3,1.6c-3.9,1.4-8.1,2.4-13-4.6
		c5.4-2.8,5.3-2.9,6.1-3S129.6,15.7,129.6,15.7z"/>
	<path data-partie="gorge" class="st2" d="M143.6,21l4.8-1.2c0,0-3.5,6.5-3,9.7s1.6,3.7,1.2,6.1c-1.9-1.2-5.9-2-8.2-2c1.6-2.5,0.1-2.4,0.2-5.9
		S143.6,21,143.6,21z"/>
	<path data-partie="nuque" class="st2" d="M111.6,11.9c0,0-5,4.5-5,17.5c3.3,1.8,8.9,2.5,20.6,3.8c-6-3.8-3.4-5.5-8.1-8.2c2.1-2.2,4.4-2.7,4.4-2.7
		l-3.5-3.9c0,0-2.8,0.9-2.7,5.4c-2.8-1-2.8-1-2.8-1l2.5-5.2c0,0-6.3-0.4-3.9-5.3C111.6,11.9,111.6,11.9,111.6,11.9z"/>
	<path data-partie="poitrine" class="st2" d="M146.5,35.6c2.7,7.9,2.7,18.7-1.2,26.9c-8-8.3-0.7-14.4-8.3-21.6c-7.6-7.3-5.6-4.8-8.1-7.2
		C133.4,33.1,140.1,32.9,146.5,35.6z"/>
	<path data-partie="côté" class="st2" d="M130.4,34.9c3.7,5.9,0.1,6,0.5,9.7c0.4,3.7-0.6,8.4-4.3,12.7s-3.6,15.1-2.1,16.3s8.2,3.8,18.4-14.3
		c-2.8-5.3-1.2-10.1-2.7-13.9C138.7,41.6,130.4,34.9,130.4,34.9z"/>
	<path data-partie="ventre" class="st2" d="M145.3,62.4c-8.8,15.1-25.3,26-30.8,28.9c-5.5,2.9-11.4,3.9-13,2.8c-1.6-1.1,4.8-8.6,13.9-12.4
		c9.1-3.9,12.9-5.3,17.1-9.2c4.1-3.9,6.4-5.5,10.4-13.2C144.3,61.2,145.3,62.4,145.3,62.4z"/>
	<path data-partie="flanc" class="st2" d="M124.7,61c-12.7,6.5-29.1,9.2-40.6,10.1c-5.4,3.4-9.8,4.8-8.4,8.9c1.3,4.1,8.9,10.9,19.9,13.6
		c3.6,1,4.8,0.3,5.8,0c0-2,5.9-8.1,11.3-10.6s14.3-5,19.8-10.5c-4.1,2-6.1,2.6-8,1.1C122.7,72,123.5,63.7,124.7,61z"/>
	<path data-partie="sous-caudale" class="st2" d="M75.7,80c0,0-3.2,8.3-39.3,1.1c16.9-4.2,11.6-2.9,14.2-3.6c2.9,0.7,4.8,1.1,6.9,0c2.2,0.5,4.1,0.4,8.8-0.6
		C68.2,76.3,69.9,79.9,75.7,80z"/>
	<path data-partie="queue" class="st2" d="M50.6,77.6C40.2,80.2,8,88.3,3.4,88.7s3.4-2.9,2.6-3.4c-0.9-0.6-3.6-1.1,3.6-3.1s17.7-4,20.4-4.6
		C32.7,78.8,45.1,78.6,50.6,77.6z"/>
	<path data-partie="primaires" class="st2" d="M54.1,64.8c-4.3,2-10.3,3.6-13.4,4.4c-3.1,0.9-5,3.2-5.9,4.6c4.3,0.1,7.3-0.8,7.3-0.8s38.5-1.6,42-1.9
		c3.5-0.3,13.9-1.7,16.5-2.2c-0.7-2.5,0.1-4.8,3.4-6.9c-3.8-0.9-8.3-1.9-8.3-1.9c-7.7,2.1-30.9,8.2-30.9,8.2
		C62.7,69.1,54.1,64.8,54.1,64.8z"/>
	<path data-partie="malaires" class="st2" d="M122.3,27.8c2.2,1.6,5.6,1.6,9,0.4c0.7-2.7,2.2-5.3,2.2-5.3l4.9-2.5c0,0,1.1-2,2.9-1.9c2.4-0.4,3.8,0.9,2.2,2.6
		c-1.6,1.6-6.5,3.8-4.6,9.9c0.5,1.4-0.7,2.7-0.7,2.7s-3.7-1.1-8.9,0C127.8,33.8,125.2,33,122.3,27.8z"/>
	<path data-partie="grandes tectrices" class="st2" d="M85.4,48.4c-9.8,4.1,8.4,17.2,39.3,12.7c0.5-4.2,2.4-2.6,4.2-6.9c-7.5-0.6-15.1-1.4-22.3-3.8
		C96.6,50.1,90.7,51,85.4,48.4z"/>
	<path data-partie="callote" class="st2" d="M145.3,10.1c-11.3-10-22-12.7-33.8,1.8c8.9,3.3,10.9-5.3,17.8-5.1C136.2,7,131.8,9.9,145.3,10.1z"/>
	<path data-partie="tertiaires" class="st2" d="M53.4,65.1c-1.4-2.2,17.5-15,29-19c1.6,1,3.1,2.2,3.1,2.2s-5,1.9-1.3,5.9C80.7,55.2,58.4,60.1,53.4,65.1z"/>
	<path data-partie="scapulaires" class="st2" d="M132,38.3c-8.6-2.7-17.5,10.1-46.5,10.1c-3.1,2.1,32.2,3.3,45.5-1.6C130.1,41.8,132.5,41.8,132,38.3z"/>
	<path data-partie="bec" class="st2" d="M146.5,12.3c0,0,5,0.2,9.5,3.2c-2.1,2.6-7.7,4.5-12.1,5.4c0.7-2.1,0.4-2.4-2.6-2.5c1.8-2.7,6.2-4.1,6.2-4.1
		L146.5,12.3z"/>
	<path data-partie="bandeau" class="st2" d="M130.1,13c-5.7,2.5-6.7,0.7-9.5,1.7c-2.9,1-5,5.3-6,8.1c1.6,0.4,2,0.5,2.8,1c-0.1-3.8,0.5-4.6,3.9-6.2
		c3.3-1.6,4.4-2.4,5.6-2.2c1.2,0.1,2.8,0.2,2.8,0.2S129.1,13.8,130.1,13z"/>
	<path data-partie="dos" class="st2" d="M106.6,29.4c-10.1,5.5-24.3,16.7-24.3,16.7l3.1,2.2c0,0,17.9,0.2,30.7-6s15.9-4.1,15.9-4.1s0.2-3.2-3.1-4.7
		C122.3,33.2,112.1,31.6,106.6,29.4z"/>
	<path data-partie="tectrices moyennes" class="st2" d="M107.8,50.1c-6.5,0,15.2,4.3,21.1,4c1.6-3.9,1.8-4.3,2.1-7.3C123.2,48.7,118.7,50,107.8,50.1z"/>
	<path data-partie="secondaires" class="st2" d="M84.1,54.3c-6.2,1.6-26.4,7-30,10.6c5.3,2.4,6.2,3.8,10.1,3.6s31.4-8.3,31.4-8.3C88.4,58.1,84.1,54.3,84.1,54.3
		z"/>
	<path data-partie="tectrices" class="st2" d="M84.1,71.1c-16.4,1-40.9,1.9-42,1.9s-9.9,3.2-12.1,4.5c3.2,0.6,13.6,1.4,20.6,0c2.4,0.5,4,1.4,6.9,0
		c1.7,0.2,3.4,0.8,8.8-0.6c3.4,1.3,4.9,3.3,9.4,3.1C74.6,75.6,84.1,71.1,84.1,71.1z"/>
</svg>
