<?xml version="1.0" encoding="utf-8"?>
<!-- Generator: Adobe Illustrator 25.4.1, SVG Export Plug-In . SVG Version: 6.00 Build 0)  -->
<svg version="1.1" id="Layer_2" xmlns="http://www.w3.org/2000/svg" xmlns:xlink="http://www.w3.org/1999/xlink" x="0px" y="0px"
	 viewBox="0 0 134.8 82.1" style="enable-background:new 0 0 134.8 82.1;" xml:space="preserve">
<style type="text/css">
	.st0{fill:#FFFFFF;stroke:#231F20;stroke-miterlimit:10;}
</style>
<polygon class="st0" points="25.2,28.3 28.5,19.9 47.6,25.6 56.5,30.9 76.5,37.8 75.5,49.1 56.5,47.2 57.4,62.8 45.2,62.8 
	37.6,46.1 "/>
<path class="st0" d="M109,33.9c4-16.2-37.3-50.9-78.7-17.1c9.8,2.7,10.2,4.2,12.7,4c2.4-0.2,5.6-4.7,12.4-2.6
	c2.2-7.4,15.8-4.3,33.6,7.2C96.1,23.4,99.6,25.6,109,33.9z"/>
<path class="st0" d="M109,33.9c-7.5,8.7-14.9-2.1-21.5,4.4c-1.7-2.5-1.9-3.1-3.9-4.5c-4.1-2.7,5.1-10.9,12.7-8.6
	C100,25.6,109,33.9,109,33.9z"/>
<path class="st0" d="M63.6,36.9c11.9-6,23.4-7,23.9,4.4c0.4,11.4-16.3,10.1-21.8,0.9c3-1.8,7,1.2,6.8,0c0.3-3.4-0.1-1.6-0.1-4
	C72.3,37.6,69.9,41,63.6,36.9z"/>
<path class="st0" d="M65.6,42.2c-1.5-2.9-8.6-3-8.3,0c-1.6-1.9-7.7-2.5-6.7,2.4c-1.5-0.4-2.5,7.6,1.5,9.5
	c-2.8,8.1,11.7,20.7,28.4,16.1c2-1.3,2.2-4.5,3-9.8c-3,1.4-3,1.9-6.4,2.4c-0.5-5.2-1.4-11.1,3.3-13.4C73.6,49.6,68.9,47.3,65.6,42.2
	z"/>
<path class="st0" d="M109,33.9c0,0,23.4,12.9,23.2,14.6c-0.3,1.7-4.6-2.1-9.6-1.5c-5,0.6-3.6,0.6-7.3,0.7c-3.7,0.1-4.7-1.9-8.4-1.5
	c-3.7,0.4-5,4-10.1,3.3c5.7-3.7,7-7,7.2-12.3C107.4,36.6,109,33.9,109,33.9z"/>
<path class="st0" d="M109,33.9c0,0,0.8,2.6,2.6,3.5c-1,2.8-6.4,4.3-8.3,4.4c0.4-1.9,0.7-1.5,0.7-4.6C107.1,35.8,109,33.9,109,33.9z"
	/>
<path class="st0" d="M132.1,48.4c0,0.5-14.9,5.6-17.7,6.4c-2.9,0.7-8.8-2.4-13.3,0c1-1.8,0.8-0.4,1-1.8s-2.6-2.8-5.4-3.5
	c6.7,0.4,6.9-3.7,11.3-3.3c4.4,0.4,3.4,1.6,6.4,1.5c3-0.1,8.9-1.3,11-0.8S132.1,47.9,132.1,48.4z"/>
<path class="st0" d="M101.1,54.8c-0.7,2-1.3,4.8-2,5.9c-1.5,2-8.4,9.9-7.1,12.4s1.3,6.2,13.3,4.7s10.2-2.4,15-2.2
	c4.7,0.1,5.2,0.6,6.8,1.8c-5.9-7-10.8-16.1-13.6-22.4C110.4,54.6,104.6,52.7,101.1,54.8z"/>
<path class="st0" d="M90.8,53c9-5.2,12.3-7.2,13.1-15.9c-6.2,0.9-11.9-3.7-16.5,1.1c0.6,5,0.2,9.8-6.1,11
	c-6.2,1.3-4.9,10.2-4.3,13.6C87.4,60.7,90.8,53,90.8,53z"/>
<path class="st0" d="M122.8,59.6"/>
<path class="st0" d="M90.8,53c2.8-5.9,10.5-2.2,11.3,0c-1.8,2.6-2.1,5.8-3,7.7c-0.9,1.9-9.2,9.8-6.7,13.5s2.1,3.4-5,4.1
	C80.3,79.1,71,80.2,63,69.1c11.8,3.2,11.5,2.2,17.5,1.1c2-1.3,2.6-6.8,3-9.8C85,59.5,88.9,57,90.8,53z"/>
<path class="st0" d="M89,25.4c-2.7,1.5-8.5,5.1-5.5,8.3c-5.9-3.2-15.3,0.7-19.9,3.2c-1.9,1.1-17.5-1.3-18-7.5
	c-5-0.3-21.4-8.3-21.4-8.3l6.2-4.3c0,0,8.1,2.3,10.9,3.8s5.9-3.2,9.6-2.9s4.6,0.5,4.6,0.5s0.6-4.7,7.6-4C70,14.9,82.2,19.9,89,25.4z
	"/>
<path class="st0" d="M24.1,21.1c-4.5-0.3-13.3,11.1-20.4,13.4c7.3,5,21.9,20.4,28.9,27.4c10.8,10.8,17.6,0.8,32.1,9.3
	c-2.6-3.5-3.1-2.4-5.3-4.1S43.9,55.4,43,44.7C41.9,39.3,34.2,24.7,24.1,21.1z"/>
<circle class="st0" cx="78.6" cy="40.6" r="4.9"/>
</svg>
