<?xml version="1.0" encoding="utf-8"?>
<!-- Generator: Adobe Illustrator 25.4.1, SVG Export Plug-In . SVG Version: 6.00 Build 0)  -->
<svg version="1.1" id="Layer_2" xmlns="http://www.w3.org/2000/svg" xmlns:xlink="http://www.w3.org/1999/xlink" x="0px" y="0px"
	 viewBox="0 0 134.2 160.9" style="enable-background:new 0 0 134.2 160.9;" xml:space="preserve">
<style type="text/css">
	.st0{fill:#FFFFFF;stroke:#070707;stroke-miterlimit:10;}
</style>
<path class="st0" d="M77.3,74.9c-7.5-1-35.7-10.3-38.8-11.9c-3.1-1.6-2.7,5.9-1,7.1c-2.5,1-3.4,5.6-1.2,7.7c-4.2,1.8-1.6,9.2,0,9.9
	c-3.3,2.5-0.5,7,2.2,7.3c-2.8,2.5-0.5,8.6,2,8.6c-1.7,1.8-0.1,6.1,2.4,6.2c-1.8,2.1,1.3,5.6,3.9,4.4c-0.8,1.7,3.4,3.9,4.9,3.1
	c1.5-0.7,3.3-1.7,6.7-2.3c3.3-0.6,9.6-2.3,11.8-16.2c-0.9-3.8-2.8-8.8,1-13.6c3.8-4.8,6.7-7.8,6.5-8.7
	C77.4,75.6,77.3,74.9,77.3,74.9z"/>
<path class="st0" d="M77.3,74.9C63.3,74.5,38.5,63,38.5,63c-4.6-2.2-1.2-11.4,2.7-9.3c-4-2.8,0.6-12,5.7-9.5
	c-6-6.1,1.4-15.3,5.7-8.7c-5.6-9.9,2.4-13.6,7.1-7c-4.4-13.8-0.1-21,6-6.1C63.4,5.6,67.1,5,68.1,7.3c1,2.2,3.6,9.3,5.5,12
	c1.8-3.4,1.7-1.2,2.4-10.1c0.7-8.9,4.6-9.1,4.6-2.9s0.8,8.5,1.3,11c2-13,6.7-12.9,7.7-12.4c1.1,0.4-2,9.2-1.8,15.6
	c2.7-6.4,8.2-10.2,6.7-4.6S87.5,43.6,88,50.7C84.1,55.4,77.3,74.9,77.3,74.9z"/>
<path class="st0" d="M89.6,80c0.3-9.6-1.5-24.8-1.6-29.3c-0.1-1-16.7,1-10.3,25.8c0.7,2.7-12.1,8.8-7.6,21
	c0.8,1.7-0.9,11.3-6.4,15.6s25.2-6.2,25.2-6.2l-1.3-16.6L89.6,80z"/>
<path class="st0" d="M35.7,124.8c-9.6,2.3-24.4,2.4-28.9,1.6s-6.6,13.1,0.4,17.9c-2.2,10.2,2.8,12.9,4.8,14s27-14.3,28.3-16.7
	S35.7,124.8,35.7,124.8z"/>
<g>
	<path class="st0" d="M35.7,124.8c2.3-1.8,9.6-4.4,14.5-6.5c-3.4,2.7-5,6-4.7,9.5C43.3,123.9,35.9,125.5,35.7,124.8z"/>
	<path class="st0" d="M95.9,106.2c11.1-1,22.1-0.6,26.5,4.5c-5.3-1.8-17.6-3.6-23.7-2.6C97.8,107.4,95.9,106.2,95.9,106.2z"/>
	<path class="st0" d="M98.7,108.1c3.4-0.6,15-0.5,23.7,2.6c1.3,0.6,1.7,1.5,1.8,1.9c0.1,0.4-4.6-2.4-7.6-2.4s-3,2.3-7.8,1.4
		c-4.8-0.8-7.9-1.4-7.9-1.4L98.7,108.1z"/>
	<path class="st0" d="M100.8,110.3c15.8,3.9,11.2-0.7,15.8,0c2.1,0,5.2,1.6,7.6,2.4c2.4,0.9-5.4-2-6.2,0.7s-4.5,0.3-5.3,0
		c-0.8-0.3-5.9-1.4-9.4,0.7C101.5,112.4,100.8,110.3,100.8,110.3z"/>
	<path class="st0" d="M105.6,123.4c0,0,1.2-2.6,1.4-2.6s14.3-3.9,14.3-3.9s1.4,1.2,3.7,1.2c-2.1,1.4-11.8,8.9-15.9,10.3
		c-1.9,0.1-2.7-3.3-2.7-3.3L105.6,123.4z"/>
	<circle class="st0" cx="115.9" cy="112.1" r="1.3"/>
	<path class="st0" d="M121.7,114.7c0,0,1.1,1.8,0.7,2.5c-0.4,0.7-10.3,7.1-11.8,6.8c-1.4-0.2-4-2.3-4-2.3l-1.3-3.4l0.8-2.2l8.4-0.6
		L121.7,114.7z"/>
	<path class="st0" d="M123.3,115.2c0,0,6.9,0.1,7.4,0.6s-2.8,2.8-6.6,2.8c-1.7-0.2-2.4-1.3-2.4-1.8S123.1,117,123.3,115.2z"/>
	<path class="st0" d="M103.3,114.2c8.1-3.2,9.8,0.7,13,0.5s0.2-2.4,3.9-2.5c3.7-0.1,3.3,1.2,3.3,1.2s0.3,2.2-0.9,2.1
		c-1.2,0-6.3,1.7-8.9,1.9c-0.7,1.2-1.1,2.4-2.6,2.6c-3.2,0.4-3.7-2.5-5.8-1.8C103.3,119.1,103.3,114.2,103.3,114.2z"/>
	<path class="st0" d="M130.7,115.9c0.3-0.6-5.9-3-7.2-3.3c0,0.9,0.9,2.3-0.3,2.6S130.4,116.5,130.7,115.9z"/>
	<path class="st0" d="M106.8,122.1c-2.3-6.4-6.4-16.3-14.6-16.9c-3.4,4.9-0.3,15,3.6,16.4S106.8,122.1,106.8,122.1z"/>
</g>
<path class="st0" d="M106.8,122.1c-4.3-2.8-9.1-2.4-12.3-7.9c-0.6,2.8-5.4,9.2-4.8,15.3c0.7,6.1,4.4,7.2,5.8,7.7
	c1.3,0.4,12.9-8,13.7-8.8C109.9,127.6,106.8,122.1,106.8,122.1z"/>
<path class="st0" d="M94.4,114.2c0.6-2.3-1.2-1.6-1.4-2.8c-1,2.1-4,4.4-9.3,4c-5.3-0.4-8.2,6-8.2,6s-0.4,7.9,3.1,7.3s10.3-1.2,11-3
	C90.4,121.2,93.7,117.1,94.4,114.2z"/>
<path class="st0" d="M81.9,115.5c-5.2-1.3-9.8-1.4-13.1-1.3c-3.3,0.1-22.4-0.8-23.4,12.9c0,6.3,18.3,3.4,25.3,1.7
	c6.4-0.4,5.9-0.7,7,0C74.2,125.7,74.4,117.3,81.9,115.5z"/>
<path class="st0" d="M95.4,137.2c-8.3,2.4-24.2,6.6-41.7,3.9c-1-5.3-4-10.1,0-10.1s15.5-2,19.2-2.3c3.8-0.3,12.1,0.5,16.6-2.9
	C89.8,130.2,88.9,134.1,95.4,137.2z"/>
<path class="st0" d="M45.3,127.1c1.1,4.7,2.3,10.3,1.6,13.7c4.4,0.1,11,1.1,14.1-0.8c0.6-3.3-0.9-7.7-2.8-9.2
	C53.6,131,46,131.8,45.3,127.1z"/>
<path class="st0" d="M46.9,140.7c-10.3,1.9-28.1,1.5-29.6-1.6c-1.4-3,15.9-14.6,18.4-14.4c2.9,0.9,10.1-1.8,10.6,6.8
	C47,134.7,46.9,140.7,46.9,140.7z"/>
<path class="st0" d="M93,111.4c2.4-5.5-2.7-10.2-3.4-15.6c-0.7-5.3,0-11,0-15.9s-7.7,29-31.2,35c6.5-0.7,11.4-1.8,25.2,0.4
	C87.4,116.1,91.8,114.2,93,111.4z"/>
</svg>
