<?xml version="1.0" encoding="utf-8"?>
<!-- Generator: Adobe Illustrator 25.4.1, SVG Export Plug-In . SVG Version: 6.00 Build 0)  -->
<svg version="1.1" id="Layer_2" xmlns="http://www.w3.org/2000/svg" xmlns:xlink="http://www.w3.org/1999/xlink" x="0px" y="0px"
	 viewBox="0 0 152.6 137.8" style="enable-background:new 0 0 152.6 137.8;" xml:space="preserve">
<style type="text/css">
	.st0{fill:#FFFFFF;stroke:#231F20;stroke-miterlimit:10;}
</style>
<path class="st0" d="M73.6,97.9c-3,3.6,0.6,11.6,5.5,8.9c-3.1,5.2,4.7,9.2,7.4,6.2c-0.6,7.1,8.4,10.4,10.7,7.3
	c1.4,6.4,8.8,8.9,10.4,2.5c0.4,7.3,6.2,9.9,8.9,9.6c1-3.3,0.9-9,1.7-5.5c0.7,3.6,4.5,8.3,9.6,8.4c-0.3-3.3-1.8-9.3-1.5-11.7
	c1.5,4,6.7,11.6,12.3,10.4c-3.3-7.6-5.8-12.6-5.6-15.1c4,6.1,10.2,9.2,13.5,7.9c-3.7-5-7.3-10.5-7.7-12.7c6.1,5.2,9.8,4.1,11.1,2.6
	c-11.1-8.4-21.1-24.3-24.1-28.7c-3-4.3-25.1-12-25.1-12l-1.5-0.9c0,0,1.3-3.5-5.9,5.2S73.6,97.9,73.6,97.9z"/>
<path class="st0" d="M96.9,76.2c-1.8,3.5,1.2,5.4,2.5,4.6c-1.5,3,1.5,3.4,2.4,2.4c-0.7,2.4,3.1,4.7,4.1,2.4c-0.4,3,4,5.9,5.2,4.3
	c0,2.8,5,4.9,5.3,1.8c0.6,4.1,4.4,4.7,4.6,2.4c0.7,1.8,4,1.8,3.6,0c1.6,1.9,3.4,0,2.2-1.5c1.6,1.2,1.9-1.3-1.6-5.6
	c-3.6-4.3-11.8-21.9-13-27.1C107.2,64.4,96.9,76.2,96.9,76.2z"/>
<polygon class="st0" points="72.5,20.5 61.6,36.9 67.9,41 96,39.9 103.9,30.4 105.8,20.5 92.7,20.5 "/>
<g>
	<path class="st0" d="M34.2,39.2c0,0-21.8,8.5-30.8,8.2c-0.9,0.1-2.1,2.6,0,3.2c-1,1.5,0,5.5,1.5,5.5c-0.1,1.3,0.3,4.4,1.9,4.4
		c-0.3,2.4,1.8,5,2.5,4.5c-0.4,2.3,2.1,5,3.4,5c-0.9,3.1-0.3,4.4,1.2,4.4c-0.7,2.3,0.6,3.1,2.2,3.2c-0.1,1.8,0.1,1.5,1.5,1.2
		c-0.7,2.4,0.6,3,3.1,0.9s30.9-29.1,30.9-29.1L34.2,39.2z"/>
</g>
<path class="st0" d="M37.2,36.9c-3.7,2.6-16.3,12.8-11.4,19.2s29.5-6.8,29.5-6.8l-5.3-10.1l-9.3-2.3H37.2z"/>
<path class="st0" d="M45.8,29.8c-5.9,3.5-7.4,6-8.6,7.1c-1.2,1.1,0,8.5-0.6,10.6c2.4-1,12.7-2.5,17.2,0c3.2-2.7,3.1-12.3,3.1-12.3
	L51.2,29L45.8,29.8z"/>
<g>
	<path class="st0" d="M114,24.9c4.6-1.6,11.9-12.3,12.6-13.4c0.1-1.1-1-2.3-1-2.3l-7.4,5l-7.2,3.6l-2.3,4.4L114,24.9z"/>
	<path class="st0" d="M110,19.1c2.8,1,5.3,2.1,6.7,0.6c1.3-1.6,2.4-2.7,3.2-4s1.7-0.2,3-2.1c1.3-1.9,1.4-2.1,3.1-3.1
		c0.3-0.5,0.4-2.3-0.6-3.1s-16.4,3-16.4,3l-4,4.3l3.2,4L110,19.1z"/>
	<path class="st0" d="M107.4,14.7c1.4-1.1,3.6-0.5,5.2-0.9c1.6-0.4,4.3-1.7,4.3-1.7s2.6,1.6,3.6,1.3c1-0.2,2-1.9,2.1-3.3
		c1.6,0.1,2.5-0.7,3.4-1c0.4-1.1,0.2-2.1-1.6-2.4s-11.8-1.3-11.8-1.3L105.8,8l-1.9,2.5l2,4.2L107.4,14.7z"/>
	<path class="st0" d="M102.4,4.7c4.3-3.7,15.7-3.8,23.2,1.8c1.7,1.8-3.1,0-4,1.8c-2.7-2.4-6.3-1.9-11.1,1.8c-2-0.4-3.5-0.8-4.6-0.7
		C104.7,9.4,102.4,4.7,102.4,4.7z"/>
	<path class="st0" d="M103.2,36.9c-1.1-6.6-1.4-7.9,1.1-14.3c6.8,2.2,6.5,2.8,9.7,2.2C106.4,34.8,103.2,36.9,103.2,36.9z"/>
	<ellipse transform="matrix(0.9653 -0.2611 0.2611 0.9653 1.1132 31.4175)" class="st0" cx="118.8" cy="11.5" rx="2" ry="1"/>
	<path class="st0" d="M125.8,7.3c-0.8-1.2,5.5-0.2,5.8,0.5c0.2,0.7-5.5,2.2-5.5,2.2S126.4,8.3,125.8,7.3z"/>
	<path class="st0" d="M126.1,10c0.2,2,0,2.8,2.1,1.5c2.1-1.3,3.3-2.5,3.3-3.1S126.1,10,126.1,10z"/>
	<path class="st0" d="M111,61.6c-1,5-3.4,14.6-10.1,11.1C99.4,71.6,109.3,61.6,111,61.6z"/>
	<path class="st0" d="M67.9,15.7C60,19.9,51,24.6,45.8,29.8c8,3.5,8.1,11.9,8.4,14.4c6.3,2.2,7.4-0.5,9.6-4.8
		c2.2-4.3,2.5-3.1,3.5-6.1c1-3,3.3-6.8,4.7-8.4c1.4-1.7,5.6-5.1,5.6-5.1l-3.9-4.1H67.9z"/>
</g>
<path class="st0" d="M93.8,5.9c-12.3-0.3-21.2,6.4-25.9,9.8c1.2,2.2,1,1.5,2.5,1.6c-1,1.6,0.8,5,2.2,5.3c-1.3,1.2-1.1,3.1,1.7,3.7
	c2.8,0.6,18.4,2.7,29.7-2.7c4.7-1.3,2-4.8,2-4.8l-6.6-9L93.8,5.9z"/>
<path class="st0" d="M104.3,22.7c-3.9-6.7-6.9-7-8.3-10.5s-2-5-2.3-6.2c3.1-1.5,7.1-1.6,8.6-1.2c2.1,3.6,3.5,3.6,3.5,4.6
	c-0.1,1,0.5,4,1.6,5.3c1,1.3,4.2,3.7,4.2,4.9c0,2.1,0,5.1,2.4,5.3c-2.8,0.1-4-0.2-6.4-1.1S104.3,22.7,104.3,22.7z"/>
<path class="st0" d="M53.1,50.8c-2.2-0.9-1.7-3.9,0-3.7c-1.8-1.3,1.4-3.9,3.8-3.7c-1.6-1.8,2.7-3.9,4.3-3.6
	c-0.9-1.5,4.3-3.8,7.3-2.6c3,1.2,5,2,5,2l1.2,11.4c0,0,2.9-0.1-0.4,1.3c-3.3,1.3,1.1,1.6-3.3,1.3C66.5,52.9,60.9,53.1,53.1,50.8z"/>
<path class="st0" d="M112.6,61.6c3.7,4,6.4,12.3,5.5,13.3c-0.9,1-9.6-3.3-8.1-8.3C111.4,61.6,112.6,61.6,112.6,61.6z"/>
<path class="st0" d="M70.9,53.2c-10.4-0.7-15.1-1-17.8-2.4c-2.4-1.7-2.9,8,0.8,9c-3.6,1.3-0.6,7.6,1.3,7.7c-3.4,1.5,1.5,8.3,3.4,7.6
	c-1.9,1.6,0.1,11.4,3.7,10.4c-1.6,2.7,2.5,7.1,4.7,6.4c-1.3,3.1,2.1,9.5,6.5,6.1s18.1-13.1,23.6-23.2c1.5-3.5-19.7-18.9-19.7-18.9
	L70.9,53.2z"/>
<path class="st0" d="M80.5,38.5c-7.9-1.2-8.3-1.5-9.7-1c-1.3,0.4-0.4,0.7,0.6,1c-1.8,1-2.1,3.4-0.4,3.9c-1.9,1.5-1.3,3.9,0,4.1
	c-1.6,2.2-1.8,5.1,0.9,5.4c-2.2,1.1-0.6,6.8,1.9,6.5c-1.5,1.8,2.4,6.5,4.3,5.5c-1.5,2.4,1.6,4.4,4.1,3.3c-1.3,2.7,3.9,5.3,5.3,4.1
	c-1,2.2,4.1,5.6,5.2,3.9c-0.1,3,2.5,2.5,5,0.5s11.8-11.9,13.2-14C112.3,59.6,80.5,38.5,80.5,38.5z"/>
<path class="st0" d="M80.5,38.5c-2.3,0.1-3.6,3.4-0.9,4.6c-0.3,1.6,0.6,2.4,2.1,2.4c-1.2,2.5-0.1,4.3,1.3,4
	c-1.2,2.4,1.3,4.7,2.7,4.1c-0.7,3.1,2.1,4.6,2.5,3.1c0.1,3,2.8,3.7,3,1.9c0.1,2.2,3.1,4.9,3.7,2.5c0.7,2.1,6.3,5.2,5.2,0.9
	c1.5,2.8,5.8,4.3,5.3,2.1c3,1.5,4.9-0.1,3.6-1.3c2.8,0.7,5.1-0.6,2.7-5.3c-2.4-4.8-26.4-17-26.4-17L80.5,38.5z"/>
<path class="st0" d="M102.1,30.4c1,12,8.7,25.8,9.5,27.3c0.7,1.5-6.8,10.2-25.6-11.7c-5.2-6.8-3.6-4.1-5.4-7.4
	C87.4,39.1,99.1,35.9,102.1,30.4z"/>
</svg>
